# This file uses centimeters as units for non-parametric coordinates.

v -1.00000 -1.00000 -8.358598
v  1.00000 -1.00000 -8.358598
v -1.00000 1.00000 -8.358598
v  1.0000 1.00000 -8.358598
vt 1.000000 0.000000
vt 0.000000 0.000000
vt 1.000000 0.999954
vt 0.000000 0.999954
vn 0.000000 -0.000000 1.000000
vn 0.000000 -0.000000 1.000000
vn 0.000000 -0.000000 1.000000
vn 0.000000 -0.000000 1.000000
vn 0.000000 -0.000000 1.000000
vn 0.000000 -0.000000 1.000000
s off
f 1/1/1 2/2/2 3/3/3
f 3/3/4 2/2/5 4/4/6
